<?xml version="1.0" standalone="no"?>
<!DOCTYPE svg PUBLIC "-//W3C//DTD SVG 20010904//EN"
 "http://www.w3.org/TR/2001/REC-SVG-20010904/DTD/svg10.dtd">
<svg version="1.0" xmlns="http://www.w3.org/2000/svg"
 width="300.000000pt" height="300.000000pt" viewBox="0 0 300.000000 300.000000"
 preserveAspectRatio="xMidYMid meet">
<metadata>
Created by potrace 1.11, written by Peter Selinger 2001-2013
</metadata>
<g transform="translate(0.000000,300.000000) scale(0.100000,-0.100000)"
fill="#000000" stroke="none">
<path d="M1594 2986 c-3 -8 -1 -43 4 -78 11 -67 8 -346 -3 -413 -40 -231 -166
-445 -337 -572 -55 -40 -205 -119 -245 -127 -29 -7 -31 -5 -65 66 -45 93 -70
189 -84 326 -3 37 -8 69 -10 71 -9 9 -54 -12 -104 -49 -251 -185 -438 -476
-494 -767 -28 -146 -14 -375 34 -553 108 -402 421 -723 813 -835 181 -52 432
-68 612 -39 400 63 734 304 913 659 64 126 86 189 117 340 20 94 23 134 20
275 -4 218 -15 301 -66 478 -87 303 -247 566 -505 826 -35 36 -147 133 -194
169 -55 42 -208 147 -214 147 -2 0 -35 18 -73 39 -86 49 -111 57 -119 37z"/>
</g>
</svg>
