<?xml version="1.0" encoding="utf-8"?>
<!-- Generator: Adobe Illustrator 23.0.2, SVG Export Plug-In . SVG Version: 6.00 Build 0)  -->
<svg version="1.1" id="Layer_1" xmlns="http://www.w3.org/2000/svg" xmlns:xlink="http://www.w3.org/1999/xlink" x="0px" y="0px"
	 viewBox="0 0 255.5 52" style="enable-background:new 0 0 255.5 52;" xml:space="preserve">
<style type="text/css">
	.st0{fill-rule:evenodd;clip-rule:evenodd;fill:#FFFFFF;}
	.st1{fill:#FFFFFF;}
</style>
<g>
	<path class="st0" d="M11.4,20.5c8.6-3,10.1-10.7,9-17.8c0-0.3,0.2-0.4,0.4-0.4c8.2,4,17.5,12.8,17.5,26c0,10.1-7.8,19.1-19.2,19.1
		C9,47.8,0.5,40,0,29.9c-0.3-6.7,3.1-13,8.8-16.5c0.2-0.1,0.5,0,0.5,0.3c0.1,1.4,0.5,4.8,2,6.8C11.3,20.5,11.4,20.5,11.4,20.5z"/>
	<path class="st0" d="M62.6,39.3l0.6-0.7l1.9,6.2L64.9,45c-1.5,1.4-3.7,2.1-6.5,2.1h-0.1c-2.6,0-4.6-0.7-6-2.1
		c-1.4-1.4-2.1-3.5-2.1-6.1V22.1h-4.9v-6.8h4.9V7.1h7.6v8.2h6v6.8h-6.1v15.1c0,0.7,0.2,2.9,2.3,2.9C61.2,40.2,62.3,39.8,62.6,39.3
		L62.6,39.3z M66.7,46.4v-31h7.6v31C74.3,46.4,66.7,46.4,66.7,46.4z M70.4,2.7C73,2.7,75,4.7,75,7.3c0,2.5-2.1,4.6-4.6,4.6
		c-2.5,0-4.6-2-4.6-4.5C65.8,4.8,67.9,2.7,70.4,2.7z M94.8,14.6c6.6,0,10.2,3.6,10.2,10.1v21.6h-7.6V26.6c-0.1-3.5-1.8-5.1-5.4-5.1
		c-3.2,0-5.8,2-7.1,3.7v21.3h-7.6v-31h7.6v3.3C87,16.6,90.5,14.7,94.8,14.6L94.8,14.6z M130.3,18.6V4h7.6v42.4h-7.6v-3.2
		c-2.4,2.5-5.6,3.9-9.1,3.9c-8.3,0-13.9-6.5-13.9-16.2c0-9.7,5.6-16.3,13.9-16.3C124.7,14.6,128,16.1,130.3,18.6z M130.3,25.1
		c-1.7-2.2-4.4-3.6-7.2-3.7c-4.7,0-7.9,3.8-7.9,9.4c0,5.6,3.2,9.4,7.9,9.4c2.7,0,5.8-1.5,7.2-3.6C130.3,36.7,130.3,25.1,130.3,25.1z
		 M155.8,14.6c9,0,15.3,7,15.3,16.9v2.1h-23c0.8,4.4,4.2,7.1,8.9,7.1c3,0,6.2-1.3,8.1-3.2l0.5-0.4l3.6,5.2l-0.4,0.3
		c-3.4,3-7.9,4.6-12.5,4.5c-9.5,0-16.2-6.7-16.2-16.3c-0.3-8.7,6.5-15.9,15.1-16.2C155.4,14.6,155.6,14.6,155.8,14.6L155.8,14.6z
		 M148,27.8h15.6c-0.4-4.7-4.3-6.8-7.8-6.8C150.4,21,148.4,25.1,148,27.8L148,27.8z M189.5,14.6h0.5v7.7l-0.7-0.1
		c-0.5-0.1-1.2-0.2-1.9-0.2c-2.5,0-5.9,1.7-7.1,3.6v20.8h-7.6v-31h7.7v3.4C182.8,16.2,186.2,14.6,189.5,14.6z"/>
</g>
<g>
	<path class="st1" d="M205.6,14.2c-4.3,0.1-7.3-1.4-8.1-4c-0.2-0.6,0.1-1,0.8-0.9c6.3,0.5,18.1-2.1,22.2-2c3,0.1,5.7,0.9,6.7,3.6
		c0.2,0.6,0.1,1.1-0.9,1.1c-3.5-0.4-8,0.4-12.1,1.1c0.1,1.7-0.4,4-2.3,7.5c-4.3,7.7-10.3,17.7-15.8,30.7c-0.3,0.7-0.6,0.7-1.1,0.2
		c-1-0.9-1.8-3.1-0.9-6.5c1.6-5.8,9.3-21.2,15.9-31.2C208.3,14,206.9,14.2,205.6,14.2z"/>
	<path class="st1" d="M229.2,12.5c-0.3-0.8-0.2-1.2,0.7-1.3c4.9-0.6,8.4-3.5,13.1-4.2c4.5-0.7,8.1,1.6,10.7,6.2
		c6.5,11.4-6.1,32.1-25.1,38.4c-2.1,0.7-3.3,0.5-4.5-0.5c-0.9-0.7-2-1.6-3-3.1c-1.3-1.8-1.7-2.9-0.2-7.5c2.2-6.7,8.1-17.8,13-25.1
		C231.1,15.3,229.7,13.5,229.2,12.5z M235.8,22.2c-3.6,6.3-9.3,15.8-11.4,22.3c-0.9,3-0.4,4,1.7,3.2c19.4-7.4,28.3-27.7,24.1-34.4
		c-2.5-4-7.7-0.2-12.6,1.4C238,16.5,237.6,19.1,235.8,22.2z"/>
</g>
</svg>