<?xml version="1.0" encoding="utf-8"?>
<!-- Generator: Adobe Illustrator 26.0.3, SVG Export Plug-In . SVG Version: 6.00 Build 0)  -->
<svg version="1.1" id="Layer_1" xmlns="http://www.w3.org/2000/svg" xmlns:xlink="http://www.w3.org/1999/xlink" x="0px" y="0px"
	 viewBox="0 0 255.5 52" style="enable-background:new 0 0 255.5 52;" xml:space="preserve">
<style type="text/css">
	.st0{fill:url(#SVGID_1_);}
	.st1{fill:none;}
	.st2{fill:url(#SVGID_00000016058192066739987790000005943373487377101747_);}
	.st3{fill:url(#SVGID_00000064322311786340893740000009550568628701855920_);}
	.st4{fill:url(#SVGID_00000096053049128880825940000013411590482602996356_);}
	.st5{fill:url(#SVGID_00000083047453718388134870000007732801002978098307_);}
	.st6{fill:url(#SVGID_00000088127161892197661070000001554696478743164291_);}
	.st7{fill:url(#SVGID_00000062189181491888813030000003709819444619265958_);}
	.st8{fill:url(#SVGID_00000181060859407937129830000002863366218147588742_);}
	.st9{fill:url(#SVGID_00000091711745826436553130000002030627386941109689_);}
	.st10{fill:url(#SVGID_00000175293480753532228650000001646783033930572425_);}
</style>
<linearGradient id="SVGID_1_" gradientUnits="userSpaceOnUse" x1="7.237960e-02" y1="24.7429" x2="255.5724" y2="24.7429">
	<stop  offset="0" style="stop-color:#FF7854"/>
	<stop  offset="1" style="stop-color:#FD267D"/>
</linearGradient>
<path class="st0" d="M20.9,2.2c-0.2,0-0.4,0.1-0.4,0.4c1.1,7.1-0.4,14.8-9,17.8h-0.1c-1.5-2-1.9-5.4-2-6.8c0-0.3-0.3-0.4-0.5-0.3
	c-5.7,3.5-9.1,9.8-8.8,16.5c0.5,10.1,9,17.9,19.1,17.5c11.4,0,19.2-9,19.2-19.1C38.4,15,29.1,6.2,20.9,2.2z"/>
<g>
	<path class="st1" d="M155.8,20.9c-5.4,0-7.4,4.1-7.8,6.8h15.6C163.2,23,159.3,20.9,155.8,20.9z"/>
	<path class="st1" d="M130.3,25c-1.7-2.2-4.4-3.6-7.2-3.7c-4.7,0-7.9,3.8-7.9,9.4c0,5.6,3.2,9.4,7.9,9.4c2.7,0,5.8-1.5,7.2-3.6
		C130.3,36.6,130.3,25,130.3,25z"/>
	
		<linearGradient id="SVGID_00000042710381860534509540000001949735426145867654_" gradientUnits="userSpaceOnUse" x1="0" y1="30.795" x2="255.5" y2="30.795">
		<stop  offset="0" style="stop-color:#FF7854"/>
		<stop  offset="1" style="stop-color:#FD267D"/>
	</linearGradient>
	<path style="fill:url(#SVGID_00000042710381860534509540000001949735426145867654_);" d="M171.1,31.4c0-9.9-6.3-16.9-15.3-16.9
		c-0.2,0-0.4,0-0.6,0c-8.6,0.3-15.4,7.5-15.1,16.2c0,9.6,6.7,16.3,16.2,16.3c4.6,0.1,9.1-1.5,12.5-4.5l0.4-0.3l-3.6-5.2l-0.5,0.4
		c-1.9,1.9-5.1,3.2-8.1,3.2c-4.7,0-8.1-2.7-8.9-7.1h23V31.4z M148,27.7c0.4-2.7,2.4-6.8,7.8-6.8c3.5,0,7.4,2.1,7.8,6.8H148z"/>
	
		<linearGradient id="SVGID_00000075849006126302775800000004291529529589895299_" gradientUnits="userSpaceOnUse" x1="0" y1="30.4428" x2="255.5" y2="30.4428">
		<stop  offset="0" style="stop-color:#FF7854"/>
		<stop  offset="1" style="stop-color:#FD267D"/>
	</linearGradient>
	<path style="fill:url(#SVGID_00000075849006126302775800000004291529529589895299_);" d="M180.4,18.7v-3.4h-7.7v31h7.6V25.5
		c1.2-1.9,4.6-3.6,7.1-3.6c0.7,0,1.4,0.1,1.9,0.2l0.7,0.1v-7.7h-0.5C186.2,14.5,182.8,16.1,180.4,18.7z"/>
	
		<linearGradient id="SVGID_00000109749403127863688220000006738876269571627952_" gradientUnits="userSpaceOnUse" x1="0" y1="25.4928" x2="255.5" y2="25.4928">
		<stop  offset="0" style="stop-color:#FF7854"/>
		<stop  offset="1" style="stop-color:#FD267D"/>
	</linearGradient>
	<path style="fill:url(#SVGID_00000109749403127863688220000006738876269571627952_);" d="M137.9,46.3V3.9h-7.6v14.6
		c-2.3-2.5-5.6-4-9.1-4c-8.3,0-13.9,6.6-13.9,16.3S112.9,47,121.2,47c3.5,0,6.7-1.4,9.1-3.9v3.2H137.9z M123.1,40.1
		c-4.7,0-7.9-3.8-7.9-9.4c0-5.6,3.2-9.4,7.9-9.4c2.8,0.1,5.5,1.5,7.2,3.7c0,0,0,11.6,0,11.5C128.9,38.6,125.8,40.1,123.1,40.1z"/>
	
		<linearGradient id="SVGID_00000155119037660143569640000012148983804612798376_" gradientUnits="userSpaceOnUse" x1="0" y1="27.0428" x2="255.5" y2="27.0428">
		<stop  offset="0" style="stop-color:#FF7854"/>
		<stop  offset="1" style="stop-color:#FD267D"/>
	</linearGradient>
	<path style="fill:url(#SVGID_00000155119037660143569640000012148983804612798376_);" d="M50.2,7v8.2h-4.9V22h4.9v16.8
		c0,2.6,0.7,4.7,2.1,6.1c1.4,1.4,3.4,2.1,6,2.1h0.1c2.8,0,5-0.7,6.5-2.1l0.2-0.2l-1.9-6.2l-0.6,0.7c-0.3,0.5-1.4,0.9-2.6,0.8
		c-2.1,0-2.3-2.2-2.3-2.9V22h6.1v-6.8h-6V7H50.2z"/>
	
		<linearGradient id="SVGID_00000081647671219337295080000018197250342370335620_" gradientUnits="userSpaceOnUse" x1="0" y1="30.4928" x2="255.5" y2="30.4928">
		<stop  offset="0" style="stop-color:#FF7854"/>
		<stop  offset="1" style="stop-color:#FD267D"/>
	</linearGradient>
	<path style="fill:url(#SVGID_00000081647671219337295080000018197250342370335620_);" d="M77.3,15.4v31h7.6V25.1
		c1.3-1.7,3.9-3.7,7.1-3.7c3.6,0,5.3,1.6,5.4,5.1v19.7h7.6V24.6c0-6.5-3.6-10.1-10.2-10.1c-4.3,0.1-7.8,2-9.9,4.2v-3.3H77.3z"/>
	
		<linearGradient id="SVGID_00000124161439690225750460000004995246588191441799_" gradientUnits="userSpaceOnUse" x1="0" y1="7.2428" x2="255.5" y2="7.2428">
		<stop  offset="0" style="stop-color:#FF7854"/>
		<stop  offset="1" style="stop-color:#FD267D"/>
	</linearGradient>
	<path style="fill:url(#SVGID_00000124161439690225750460000004995246588191441799_);" d="M70.4,2.6c-2.5,0-4.6,2.1-4.6,4.7
		c0,2.5,2.1,4.5,4.6,4.5S75,9.7,75,7.2C75,4.6,73,2.6,70.4,2.6z"/>
	
		<linearGradient id="SVGID_00000023998189057366148080000010838351535422847667_" gradientUnits="userSpaceOnUse" x1="0" y1="30.8428" x2="255.5" y2="30.8428">
		<stop  offset="0" style="stop-color:#FF7854"/>
		<stop  offset="1" style="stop-color:#FD267D"/>
	</linearGradient>
	<polygon style="fill:url(#SVGID_00000023998189057366148080000010838351535422847667_);" points="66.7,46.3 74.3,46.3 74.3,15.3 
		66.7,15.3 	"/>
</g>
<linearGradient id="SVGID_00000116949300501907586200000014931038186732107690_" gradientUnits="userSpaceOnUse" x1="0" y1="29.518" x2="255.5" y2="29.518">
	<stop  offset="0" style="stop-color:#FF7854"/>
	<stop  offset="1" style="stop-color:#FD267D"/>
</linearGradient>
<path style="fill:url(#SVGID_00000116949300501907586200000014931038186732107690_);" d="M220.5,7.2c-4.1-0.1-15.9,2.5-22.2,2
	c-0.7-0.1-1,0.3-0.8,0.9c0.8,2.6,3.8,4.1,8.1,4c1.3,0,2.7-0.2,4.4-0.4c-6.6,10-14.3,25.4-15.9,31.2c-0.9,3.4-0.1,5.6,0.9,6.5
	c0.5,0.5,0.8,0.5,1.1-0.2c5.5-13,11.5-23,15.8-30.7c1.9-3.5,2.4-5.8,2.3-7.5c4.1-0.7,8.6-1.5,12.1-1.1c1,0,1.1-0.5,0.9-1.1
	C226.2,8.1,223.5,7.3,220.5,7.2z"/>
<g>
	<path class="st1" d="M237.6,14.6c0.4,1.8,0,4.4-1.8,7.5c-3.6,6.3-9.3,15.8-11.4,22.3c-0.9,3-0.4,4,1.7,3.2
		c19.4-7.4,28.3-27.7,24.1-34.4C247.7,9.2,242.5,13,237.6,14.6z"/>
	
		<linearGradient id="SVGID_00000163049602352356562490000012069333811142220458_" gradientUnits="userSpaceOnUse" x1="0" y1="29.3882" x2="255.5" y2="29.3882">
		<stop  offset="0" style="stop-color:#FF7854"/>
		<stop  offset="1" style="stop-color:#FD267D"/>
	</linearGradient>
	<path style="fill:url(#SVGID_00000163049602352356562490000012069333811142220458_);" d="M243,6.9c-4.7,0.7-8.2,3.6-13.1,4.2
		c-0.9,0.1-1,0.5-0.7,1.3c0.5,1,1.9,2.8,4.7,2.9c-4.9,7.3-10.8,18.4-13,25.1c-1.5,4.6-1.1,5.7,0.2,7.5c1,1.5,2.1,2.4,3,3.1
		c1.2,1,2.4,1.2,4.5,0.5c19-6.3,31.6-27,25.1-38.4C251.1,8.5,247.5,6.2,243,6.9z M226.1,47.6c-2.1,0.8-2.6-0.2-1.7-3.2
		c2.1-6.5,7.8-16,11.4-22.3c1.8-3.1,2.2-5.7,1.8-7.5c4.9-1.6,10.1-5.4,12.6-1.4C254.4,19.9,245.5,40.2,226.1,47.6z"/>
</g>
</svg>